<svg xmlns="http://www.w3.org/2000/svg" viewBox="0 0 100 100" width="100" height="100">
  <defs>
    <linearGradient id="grad" x1="0%" y1="100%" x2="100%" y2="0%">
      <stop offset="0%" stop-color="#0A0F1E"/>
      <stop offset="100%" stop-color="#4F8EF7"/>
    </linearGradient>
    <clipPath id="sq">
      <rect x="0" y="0" width="100" height="100" rx="22"/>
    </clipPath>
  </defs>
  <rect x="0" y="0" width="100" height="100" rx="22" fill="url(#grad)"/>
  <g clip-path="url(#sq)" stroke="rgba(255,255,255,0.07)" stroke-width="1" fill="none">
    <line x1="0" y1="33" x2="100" y2="33"/>
    <line x1="0" y1="66" x2="100" y2="66"/>
    <line x1="33" y1="0" x2="33" y2="100"/>
    <line x1="66" y1="0" x2="66" y2="100"/>
  </g>
  <g transform="translate(52,48) rotate(-45) scale(2.8) translate(-12,-12)"
     fill="none" stroke="white" stroke-width="1.6" stroke-linecap="round" stroke-linejoin="round">
    <path d="M6 12 3.269 3.125A59.769 59.769 0 0 1 21.485 12 59.768 59.768 0 0 1 3.27 20.875L5.999 12Zm0 0h7.5"/>
  </g>
</svg>
